<?xml version="1.0" standalone="no"?>
<!DOCTYPE svg PUBLIC "-//W3C//DTD SVG 20010904//EN"
 "http://www.w3.org/TR/2001/REC-SVG-20010904/DTD/svg10.dtd">
<svg version="1.0" xmlns="http://www.w3.org/2000/svg"
 width="192.000000pt" height="192.000000pt" viewBox="0 0 192.000000 192.000000"
 preserveAspectRatio="xMidYMid meet">

<g transform="translate(0.000000,192.000000) scale(0.100000,-0.100000)"
fill="#000000" stroke="none">
<path d="M885 1914 c-107 -14 -180 -30 -248 -55 -312 -113 -541 -375 -614
-704 -20 -93 -20 -297 0 -391 83 -374 367 -657 742 -741 93 -20 297 -20 391 0
374 83 657 367 741 742 20 93 20 297 0 391 -83 372 -373 662 -737 739 -70 14
-227 26 -275 19z m-70 -534 c416 -19 495 -46 495 -165 0 -66 -47 -124 -129
-158 l-33 -14 46 -6 c67 -10 134 -45 162 -86 19 -28 24 -48 24 -98 0 -77 -11
-108 -58 -156 -50 -52 -163 -91 -327 -112 -103 -14 -510 -53 -514 -50 -2 2 49
29 112 58 94 45 115 58 112 73 -7 34 -76 448 -96 581 l-11 71 -79 36 c-43 19
-79 38 -79 42 0 4 35 4 78 1 42 -4 176 -11 297 -17z"/>
<path d="M870 1246 c0 -11 3 -45 6 -73 6 -47 10 -53 30 -53 32 0 70 16 93 39
17 17 19 25 10 44 -14 30 -40 46 -94 56 -42 8 -45 7 -45 -13z"/>
<path d="M890 931 c-27 -7 -38 -46 -39 -144 l-1 -48 33 22 c17 12 51 40 75 63
80 76 41 137 -68 107z"/>
</g>
</svg>
